<?xml version="1.0" encoding="UTF-8"?>
<svg xmlns="http://www.w3.org/2000/svg" xmlns:xlink="http://www.w3.org/1999/xlink" width="18pt" height="18pt" viewBox="0 0 18 18" version="1.1">
<g id="surface1">
<path style=" stroke:none;fill-rule:nonzero;fill:rgb(0%,0%,0%);fill-opacity:1;" d="M 9.039062 8.652344 L 11.769531 5.921875 C 11.878906 5.8125 11.878906 5.644531 11.769531 5.539062 C 11.664062 5.429688 11.492188 5.429688 11.386719 5.539062 L 8.652344 8.269531 L 5.921875 5.539062 C 5.8125 5.429688 5.644531 5.429688 5.539062 5.539062 C 5.429688 5.644531 5.429688 5.8125 5.539062 5.921875 L 8.269531 8.652344 L 5.539062 11.386719 C 5.429688 11.492188 5.429688 11.664062 5.539062 11.769531 C 5.589844 11.824219 5.660156 11.851562 5.726562 11.851562 C 5.792969 11.851562 5.867188 11.824219 5.921875 11.769531 L 8.652344 9.039062 L 11.386719 11.769531 C 11.4375 11.824219 11.515625 11.851562 11.582031 11.851562 C 11.648438 11.851562 11.714844 11.824219 11.769531 11.769531 C 11.878906 11.664062 11.878906 11.492188 11.769531 11.386719 Z M 9.039062 8.652344 "/>
<path style=" stroke:none;fill-rule:nonzero;fill:rgb(0%,0%,0%);fill-opacity:1;" d="M 8.652344 1.996094 C 9.554688 1.996094 10.425781 2.171875 11.242188 2.515625 C 12.039062 2.851562 12.75 3.332031 13.359375 3.949219 C 13.976562 4.558594 14.453125 5.265625 14.792969 6.0625 C 15.136719 6.882812 15.3125 7.753906 15.3125 8.652344 C 15.3125 9.554688 15.136719 10.425781 14.792969 11.242188 C 14.453125 12.039062 13.976562 12.75 13.359375 13.359375 C 12.75 13.976562 12.039062 14.453125 11.242188 14.792969 C 10.425781 15.136719 9.554688 15.3125 8.652344 15.3125 C 7.753906 15.3125 6.882812 15.136719 6.0625 14.792969 C 5.265625 14.453125 4.558594 13.976562 3.949219 13.359375 C 3.332031 12.75 2.851562 12.039062 2.515625 11.242188 C 2.171875 10.425781 1.996094 9.554688 1.996094 8.652344 C 1.996094 7.753906 2.171875 6.882812 2.515625 6.0625 C 2.851562 5.265625 3.332031 4.558594 3.949219 3.949219 C 4.558594 3.332031 5.265625 2.851562 6.0625 2.515625 C 6.882812 2.171875 7.753906 1.996094 8.652344 1.996094 M 8.652344 1.453125 C 4.679688 1.453125 1.453125 4.679688 1.453125 8.652344 C 1.453125 12.628906 4.679688 15.855469 8.652344 15.855469 C 12.628906 15.855469 15.855469 12.628906 15.855469 8.652344 C 15.855469 4.679688 12.628906 1.453125 8.652344 1.453125 Z M 8.652344 1.453125 "/>
</g>
</svg>
