<?xml version="1.0" encoding="UTF-8"?>
<svg xmlns="http://www.w3.org/2000/svg" xmlns:xlink="http://www.w3.org/1999/xlink" width="10pt" height="10pt" viewBox="0 0 10 10" version="1.1">
<g id="surface1">
<path style=" stroke:none;fill-rule:nonzero;fill:rgb(74,102,123);fill-opacity:1;" d="M 6.644531 1.136719 C 5.125 -0.378906 2.65625 -0.378906 1.136719 1.136719 C -0.378906 2.65625 -0.378906 5.125 1.136719 6.644531 C 2.488281 7.996094 4.59375 8.140625 6.109375 7.082031 C 6.140625 7.234375 6.214844 7.378906 6.332031 7.496094 L 8.542969 9.707031 C 8.863281 10.027344 9.386719 10.027344 9.707031 9.707031 C 10.027344 9.386719 10.027344 8.863281 9.707031 8.542969 L 7.496094 6.332031 C 7.378906 6.214844 7.234375 6.140625 7.082031 6.109375 C 8.140625 4.59375 7.996094 2.488281 6.644531 1.136719 Z M 5.945312 5.945312 C 4.8125 7.078125 2.96875 7.078125 1.835938 5.945312 C 0.703125 4.8125 0.703125 2.96875 1.835938 1.835938 C 2.96875 0.703125 4.8125 0.703125 5.945312 1.835938 C 7.078125 2.96875 7.078125 4.8125 5.945312 5.945312 Z M 5.945312 5.945312 "/>
</g>
</svg>
